<?xml version="1.0" encoding="UTF-8"?>
<svg version="1.1" xmlns="http://www.w3.org/2000/svg" width="512" height="512">
<path d="M0 0 C1.42033063 1.2007757 2.81480985 2.43254058 4.1875 3.6875 C5.52554688 4.88826172 5.52554688 4.88826172 6.890625 6.11328125 C16.91414365 15.57537331 23.68132411 26.64690007 28.1875 39.6875 C28.5071875 40.61046875 28.826875 41.5334375 29.15625 42.484375 C35.17268687 63.54190403 31.54442109 86.17834233 21.25 105.1328125 C18.64493839 109.72050864 15.75021539 113.79055782 12.1875 117.6875 C11.38699219 118.57953125 10.58648437 119.4715625 9.76171875 120.390625 C-2.10054426 132.95672706 -16.53974129 139.53445974 -32.8125 144.6875 C-31.10707031 145.03361328 -31.10707031 145.03361328 -29.3671875 145.38671875 C0.91003263 151.70380963 26.54308834 165.54700821 46.1875 189.6875 C49.43868939 188.23437246 51.81664259 186.38900332 54.5 184.0625 C67.84242451 173.3419493 84.2770825 167.07195109 101.1875 164.6875 C100.35347656 164.38457031 99.51945312 164.08164062 98.66015625 163.76953125 C80.92552868 157.16729304 67.24874035 147.61905514 58.875 130.125 C52.45632125 116.0390776 51.48035014 98.09265188 56.93359375 83.5 C64.37333261 66.81273527 75.2399234 55.5312771 91.87890625 47.94921875 C107.79775896 41.87862911 125.68119922 43.09704761 141.0625 49.97265625 C156.16167408 57.50127222 166.25020309 70.11817961 172.1875 85.6875 C177.17383072 101.95689306 174.99926142 119.33469854 167.5 134.375 C158.34023394 150.18595297 144.28788239 159.22665825 127.1875 164.6875 C128.27546875 164.91824219 129.3634375 165.14898437 130.484375 165.38671875 C155.2212148 170.80187484 177.97691401 183.25250805 192.39453125 204.73046875 C202.87883651 222.02157785 207.39504102 238.548054 207.53759766 258.67358398 C207.55421785 260.39312212 207.58158709 262.11258949 207.61962891 263.83178711 C207.67442729 266.3270197 207.69626445 268.82065301 207.7109375 271.31640625 C207.73360687 272.08110733 207.75627625 272.84580841 207.77963257 273.63368225 C207.76493804 277.35121649 207.41511048 279.38130518 205.17860603 282.38998067 C201.36157548 285.32190664 198.3694963 285.38513906 193.74630737 285.3167057 C192.46855513 285.32760651 192.46855513 285.32760651 191.16498971 285.33872753 C188.29688549 285.35704482 185.43010725 285.33959102 182.56201172 285.32241821 C180.49060314 285.32817673 178.41919967 285.33611603 176.34780693 285.34605443 C170.64502842 285.3669878 164.94266658 285.35658297 159.23988628 285.34112334 C153.093916 285.32984034 146.94801888 285.34725738 140.80206299 285.36102295 C129.45449768 285.38200452 118.10710281 285.38013958 106.75954169 285.36646561 C96.27715982 285.35389595 85.79482682 285.35060051 75.31243896 285.35657883 C74.27012382 285.35715172 74.27012382 285.35715172 73.20675181 285.35773618 C70.38613701 285.35929283 67.56552224 285.36088482 64.74490749 285.362535 C38.27647778 285.37783567 11.80813301 285.36395374 -14.6602836 285.33705051 C-38.18437519 285.31332183 -61.70833146 285.31544494 -85.23242188 285.33935547 C-111.65192428 285.36611911 -138.07135163 285.37675062 -164.49086571 285.36129415 C-167.30639011 285.35969052 -170.12191453 285.35812633 -172.93743896 285.35657883 C-173.97734685 285.35598575 -173.97734685 285.35598575 -175.03826298 285.35538069 C-185.51497014 285.34968937 -195.9916231 285.35635202 -206.46832275 285.36897659 C-218.37886863 285.38325726 -230.28925464 285.37924982 -242.19979429 285.35257287 C-248.28039087 285.33940397 -254.36071233 285.3343348 -260.44130707 285.35081863 C-266.00270009 285.3656673 -271.5635618 285.35761383 -277.1249063 285.33093087 C-279.14165079 285.32532432 -281.15843975 285.32823467 -283.17515588 285.34030981 C-285.90785277 285.3554226 -288.63870813 285.34001815 -291.37130737 285.3167057 C-292.16212448 285.32841153 -292.95294158 285.34011737 -293.76772285 285.35217792 C-297.74618298 285.28391385 -299.61540462 284.83976267 -302.80063057 282.37907064 C-305.43241743 278.85814621 -305.51826309 275.93600141 -305.44140625 271.703125 C-305.44381821 270.92926453 -305.44623016 270.15540405 -305.44871521 269.35809326 C-305.44773738 267.71735524 -305.43435863 266.07658398 -305.40942383 264.43603516 C-305.37566944 261.98608897 -305.3886247 259.53987349 -305.40820312 257.08984375 C-305.39743067 243.34697101 -303.71487609 229.39786813 -296.9375 217.1875 C-296.41434204 216.19919189 -296.41434204 216.19919189 -295.88061523 215.19091797 C-284.05147873 193.18259106 -265.21824369 176.26712977 -241.2265625 168.53125 C-235.77816026 166.93213823 -230.43129732 165.53754498 -224.8125 164.6875 C-225.64652344 164.38457031 -226.48054688 164.08164062 -227.33984375 163.76953125 C-245.07447132 157.16729304 -258.75125965 147.61905514 -267.125 130.125 C-273.54367875 116.0390776 -274.51964986 98.09265188 -269.06640625 83.5 C-261.62666739 66.81273527 -250.7600766 55.5312771 -234.12109375 47.94921875 C-218.20224104 41.87862911 -200.31880078 43.09704761 -184.9375 49.97265625 C-169.83832592 57.50127222 -159.74979691 70.11817961 -153.8125 85.6875 C-148.82616928 101.95689306 -151.00073858 119.33469854 -158.5 134.375 C-167.65976606 150.18595297 -181.71211761 159.22665825 -198.8125 164.6875 C-197.73613281 164.91824219 -196.65976563 165.14898437 -195.55078125 165.38671875 C-178.44217086 169.15954817 -163.41089945 174.90056712 -149.75 186.20703125 C-147.84207475 187.66490155 -145.9675975 188.64663495 -143.8125 189.6875 C-142.9875 188.74390625 -142.1625 187.8003125 -141.3125 186.828125 C-120.40513387 163.4000996 -94.84030358 149.50874333 -63.8125 144.6875 C-64.94945312 144.3471875 -66.08640625 144.006875 -67.2578125 143.65625 C-82.38390454 138.97459945 -94.3798612 132.955344 -105.8125 121.6875 C-106.43511719 121.13707031 -107.05773437 120.58664062 -107.69921875 120.01953125 C-116.4487497 112.05647499 -121.99579945 100.73280008 -125.8125 89.6875 C-126.1321875 88.76453125 -126.451875 87.8415625 -126.78125 86.890625 C-132.79768687 65.83309597 -129.16942109 43.19665767 -118.875 24.2421875 C-116.26993839 19.65449136 -113.37521539 15.58444218 -109.8125 11.6875 C-109.01199219 10.79546875 -108.21148437 9.9034375 -107.38671875 8.984375 C-97.92462669 -1.03914365 -86.85309993 -7.80632411 -73.8125 -12.3125 C-72.88953125 -12.6321875 -71.9665625 -12.951875 -71.015625 -13.28125 C-46.94947232 -20.15729362 -19.9763584 -14.78677063 0 0 Z M-94.8203125 26.9140625 C-106.40826607 41.11055973 -109.38740368 56.7743346 -107.8125 74.6875 C-105.53130915 90.27383561 -96.3657199 102.71252192 -84.375 112.5 C-70.1914753 122.94713691 -53.99141582 125.90906155 -36.70068359 123.37841797 C-21.18719285 120.31947482 -8.59613046 110.56286417 0.66015625 97.99609375 C10.03568428 83.82489921 12.78269655 67.30478992 9.49609375 50.63671875 C5.21199388 34.23524855 -5.7124668 20.90817022 -20.21484375 12.25390625 C-46.32026993 -1.64424323 -75.44108235 5.42347654 -94.8203125 26.9140625 Z M-243.625 80.9375 C-250.71928065 90.75400462 -251.96606528 100.90210626 -250.8125 112.6875 C-248.55492091 123.46777414 -242.06793852 131.79859065 -233.23828125 138.1796875 C-223.26234101 144.38051348 -212.0404757 145.41058289 -200.66015625 143.02734375 C-189.47540895 139.40367387 -181.00994948 131.49872995 -175.4921875 121.23046875 C-171.44106149 111.78256299 -171.2123102 100.51189536 -174.375 90.75 C-178.95158394 80.07663815 -187.20163815 71.82658394 -197.875 67.25 C-215.29189389 61.60721951 -232.01859789 67.16259814 -243.625 80.9375 Z M82.375 80.9375 C75.28071935 90.75400462 74.03393472 100.90210626 75.1875 112.6875 C77.44507909 123.46777414 83.93206148 131.79859065 92.76171875 138.1796875 C102.73765899 144.38051348 113.9595243 145.41058289 125.33984375 143.02734375 C136.52459105 139.40367387 144.99005052 131.49872995 150.5078125 121.23046875 C154.55893851 111.78256299 154.7876898 100.51189536 151.625 90.75 C147.04841606 80.07663815 138.79836185 71.82658394 128.125 67.25 C110.70810611 61.60721951 93.98140211 67.16259814 82.375 80.9375 Z M-75.8125 168.6875 C-76.43737305 168.88617676 -77.06224609 169.08485352 -77.70605469 169.28955078 C-104.61495458 178.0385477 -124.88125778 195.59605932 -138.3125 220.46484375 C-145.26645912 234.91604004 -147.8125 248.6212324 -147.8125 264.6875 C-82.4725 264.6875 -17.1325 264.6875 50.1875 264.6875 C50.1875 235.99569285 39.61965623 212.56735206 19.75390625 192.19140625 C-2.4553165 171.14917057 -28.99635292 164.85829823 -58.78076172 165.55566406 C-64.72259488 165.81404624 -70.13785954 166.85808428 -75.8125 168.6875 Z M-261.8125 204.6875 C-262.72902344 205.46480469 -262.72902344 205.46480469 -263.6640625 206.2578125 C-277.3159835 218.66298272 -283.56324693 236.71317231 -284.8125 254.6875 C-284.8125 257.9875 -284.8125 261.2875 -284.8125 264.6875 C-246.5325 264.6875 -208.2525 264.6875 -168.8125 264.6875 C-168.1525 257.7575 -167.4925 250.8275 -166.8125 243.6875 C-164.86552413 234.55685452 -162.46929331 226.151063 -158.86328125 217.5546875 C-157.75519523 214.5311368 -157.03372349 211.90408961 -156.8125 208.6875 C-162.04814195 198.67243387 -178.210671 192.07701784 -188.36328125 188.66015625 C-214.7085512 181.23096914 -241.19830347 186.15704897 -261.8125 204.6875 Z M63.1875 204.6875 C62.03121094 205.60982422 62.03121094 205.60982422 60.8515625 206.55078125 C58.88862378 208.60469686 58.88862378 208.60469686 59.26171875 211.48828125 C60.29295557 215.0519224 61.59583797 218.44773893 63 221.875 C65.35343745 227.90838359 67.14456755 233.91709318 68.5 240.25 C68.65895752 240.96760498 68.81791504 241.68520996 68.98168945 242.42456055 C70.48936785 249.90824842 70.66731518 256.88472777 71.1875 264.6875 C109.4675 264.6875 147.7475 264.6875 187.1875 264.6875 C187.1875 242.03988619 182.28123319 223.763871 166.5546875 207.03125 C152.17096922 192.78994477 134.43189155 185.39456455 114.25 185.1875 C94.7973751 185.38680968 77.71688612 191.49133471 63.1875 204.6875 Z " fill="#FD9100" transform="translate(304.8125,211.3125)"/>
<path d="M0 0 C0.74121094 -0.01933594 1.48242188 -0.03867188 2.24609375 -0.05859375 C5.74327261 0.69038047 7.04677115 1.82662255 9.5625 4.4375 C11.76364737 8.09309283 13.59872424 11.90201673 15.4375 15.75 C16.22205566 17.3580249 16.22205566 17.3580249 17.02246094 18.99853516 C18.54928178 22.13857393 20.05825137 25.28659779 21.5625 28.4375 C21.96952148 29.28199707 22.37654297 30.12649414 22.79589844 30.99658203 C28.5625 42.96649413 28.5625 42.96649413 28.5625 45.4375 C29.30371094 45.48285889 30.04492188 45.52821777 30.80859375 45.57495117 C39.3918572 46.16130783 47.862027 47.17086688 56.36767578 48.42944336 C58.58574602 48.75339511 60.80621508 49.05524903 63.02734375 49.35742188 C64.45592748 49.56635684 65.88432132 49.7765953 67.3125 49.98828125 C69.22289062 50.26152222 69.22289062 50.26152222 71.171875 50.5402832 C74.90607781 51.52841651 76.8378982 52.72898092 79.5625 55.4375 C80.81747957 59.2024387 81.08314444 61.46758618 80.5625 65.4375 C77.05969315 70.82607515 71.88498263 74.97385661 67.0859375 79.16796875 C53.31243834 90.09919528 53.31243834 90.09919528 46.42578125 105.2109375 C46.83609635 109.70480648 48.11614876 113.8306229 49.70703125 118.03857422 C51.04750484 121.79756209 51.62918084 125.63211192 52.25 129.5625 C52.43502075 130.60241089 52.43502075 130.60241089 52.6237793 131.66333008 C54.63167012 143.01389156 54.63167012 143.01389156 53.5625 148.4375 C51.3609026 151.33433868 49.77655538 152.83047231 46.5625 154.4375 C38.25709768 154.32799672 32.37584394 151.18709418 25.1875 147.25 C24.12789063 146.68474609 23.06828125 146.11949219 21.9765625 145.53710938 C17.78237408 143.29352697 13.60088249 141.04738835 9.49902344 138.63818359 C8.53770508 138.0808252 7.57638672 137.5234668 6.5859375 136.94921875 C5.73692871 136.44221436 4.88791992 135.93520996 4.01318359 135.4128418 C1.00405812 134.21524703 -0.38295552 134.46059614 -3.4375 135.4375 C-5.50075035 136.30159506 -5.50075035 136.30159506 -7.484375 137.40625 C-8.23879883 137.80859863 -8.99322266 138.21094727 -9.77050781 138.62548828 C-10.56811523 139.05845215 -11.36572266 139.49141602 -12.1875 139.9375 C-13.01862305 140.3794873 -13.84974609 140.82147461 -14.70605469 141.27685547 C-18.90039839 143.51081669 -23.0701024 145.7839112 -27.21875 148.1015625 C-27.97188477 148.51599609 -28.72501953 148.93042969 -29.50097656 149.35742188 C-30.9214568 150.14030379 -32.33537051 150.9352643 -33.74121094 151.74414062 C-38.12985265 154.15144932 -41.31192966 154.95193913 -46.4375 154.4375 C-49.22651573 153.19793745 -50.88100587 152.15299246 -52.75 149.75 C-54.53758071 143.73722851 -53.24870485 137.25119599 -52.125 131.2109375 C-51.9252356 130.08396957 -51.9252356 130.08396957 -51.72143555 128.93423462 C-51.29992654 126.55911038 -50.86960913 124.18571683 -50.4375 121.8125 C-50.00600707 119.43204908 -49.57664955 117.05130245 -49.15356445 114.66934204 C-48.89151935 113.19478347 -48.62470288 111.72106194 -48.35229492 110.24838257 C-46.77750821 103.27972302 -46.77750821 103.27972302 -48.54467773 96.7409668 C-49.32500366 96.07061401 -49.32500366 96.07061401 -50.12109375 95.38671875 C-50.71132324 94.86158691 -51.30155273 94.33645508 -51.90966797 93.79541016 C-52.55822754 93.2441748 -53.20678711 92.69293945 -53.875 92.125 C-55.24306965 90.89956953 -56.60885984 89.67159069 -57.97265625 88.44140625 C-58.69598145 87.79574707 -59.41930664 87.15008789 -60.16455078 86.48486328 C-64.12215513 82.92004373 -67.98443506 79.2656169 -71.8125 75.5625 C-72.55556396 74.87373779 -73.29862793 74.18497559 -74.06420898 73.4753418 C-77.38641104 70.23953178 -79.78942312 67.83643664 -80.47265625 63.13671875 C-80.43185283 58.8432918 -80.05796446 56.8520446 -77.4375 53.4375 C-72.06180606 51.08586083 -67.0023411 49.82151058 -61.2109375 49.05078125 C-60.45962555 48.94404587 -59.7083136 48.83731049 -58.93423462 48.7273407 C-57.36007971 48.50555483 -55.78530356 48.28813718 -54.20996094 48.07495117 C-51.81029692 47.74970139 -49.41297998 47.41017358 -47.015625 47.06835938 C-45.47667921 46.85332972 -43.93762013 46.63910903 -42.3984375 46.42578125 C-41.68891937 46.32582352 -40.97940125 46.22586578 -40.24838257 46.12287903 C-36.2816779 45.59108082 -32.43858088 45.33874161 -28.4375 45.4375 C-28.18983887 44.61983154 -27.94217773 43.80216309 -27.68701172 42.9597168 C-26.22277249 38.83221008 -24.39041892 35.00037089 -22.4453125 31.08203125 C-22.05810028 30.29857834 -21.67088806 29.51512543 -21.27194214 28.70793152 C-20.45543819 27.06047631 -19.63672201 25.41411585 -18.81591797 23.76879883 C-17.56371943 21.2524505 -16.32665112 18.72901949 -15.08984375 16.20507812 C-14.29258663 14.6011049 -13.49443973 12.99757357 -12.6953125 11.39453125 C-12.32850372 10.64138138 -11.96169495 9.88823151 -11.58377075 9.11225891 C-8.87771827 3.74666387 -6.50750865 0.01127818 0 0 Z M-0.4375 34.4375 C-0.95135254 35.54206543 -0.95135254 35.54206543 -1.47558594 36.66894531 C-3.0372818 40.01272491 -4.61221823 43.35010072 -6.1875 46.6875 C-6.72632813 47.84636719 -7.26515625 49.00523438 -7.8203125 50.19921875 C-8.34882813 51.31425781 -8.87734375 52.42929688 -9.421875 53.578125 C-9.90366211 54.60454102 -10.38544922 55.63095703 -10.88183594 56.68847656 C-13.26669811 60.90278102 -15.14166288 63.06513301 -19.8359375 64.4140625 C-21.15860509 64.64703236 -22.48446602 64.86237442 -23.8125 65.0625 C-24.50988281 65.18020752 -25.20726562 65.29791504 -25.92578125 65.41918945 C-28.09373749 65.77863699 -30.26418472 66.11213875 -32.4375 66.4375 C-33.48405762 66.59629639 -33.48405762 66.59629639 -34.55175781 66.75830078 C-38.50913185 67.35313237 -42.47054066 67.91063821 -46.4375 68.4375 C-44.81264186 72.80889255 -41.51739887 75.35911599 -38.125 78.375 C-26.69457929 88.66626214 -26.69457929 88.66626214 -25.4375 92.4375 C-25.18201005 98.3520923 -25.85126013 103.75943476 -26.9375 109.5625 C-27.86889088 114.58865441 -28.63458909 119.29675964 -28.4375 124.4375 C-25.9153714 123.19006064 -23.39479922 121.93962931 -20.875 120.6875 C-20.17052734 120.33945313 -19.46605469 119.99140625 -18.74023438 119.6328125 C-15.36474821 117.95284704 -12.10342516 116.24048429 -8.91015625 114.234375 C-4.43892021 111.92079954 -0.44978216 110.50937111 4.51806641 112.04003906 C6.53886606 112.95095102 8.4480537 113.96742583 10.375 115.0625 C11.67181259 115.76554358 12.97002411 116.46601209 14.26953125 117.1640625 C14.9342041 117.52532227 15.59887695 117.88658203 16.28369141 118.25878906 C20.62235739 120.5029587 25.09881516 122.45695527 29.5625 124.4375 C29.43609131 123.72730713 29.30968262 123.01711426 29.17944336 122.28540039 C28.60676316 119.02571215 28.05327357 115.76303587 27.5 112.5 C27.30083984 111.38302734 27.10167969 110.26605469 26.89648438 109.11523438 C24.72963693 96.15216457 24.72963693 96.15216457 26.5625 90.4375 C28.63671875 87.85546875 28.63671875 87.85546875 31.5625 85.4375 C32.82930256 84.21500316 34.08500567 82.98094551 35.33203125 81.73828125 C35.99267578 81.08666016 36.65332031 80.43503906 37.33398438 79.76367188 C38.00751953 79.09916016 38.68105469 78.43464844 39.375 77.75 C40.06787109 77.07388672 40.76074219 76.39777344 41.47460938 75.70117188 C42.12880859 75.05341797 42.78300781 74.40566406 43.45703125 73.73828125 C44.05362549 73.15216064 44.65021973 72.56604004 45.26489258 71.9621582 C46.77854205 70.51733747 46.77854205 70.51733747 46.5625 68.4375 C45.77077393 68.33203857 44.97904785 68.22657715 44.16333008 68.11791992 C40.56552843 67.6319728 36.97036011 67.1286801 33.375 66.625 C32.12912109 66.45935547 30.88324219 66.29371094 29.59960938 66.12304688 C28.39755859 65.95224609 27.19550781 65.78144531 25.95703125 65.60546875 C24.85206299 65.45360107 23.74709473 65.3017334 22.60864258 65.14526367 C18.51707213 64.19459743 15.64495036 62.92765784 13.14038086 59.47973633 C12.58942749 58.38568481 12.58942749 58.38568481 12.02734375 57.26953125 C11.61033203 56.45806641 11.19332031 55.64660156 10.76367188 54.81054688 C10.34666016 53.96556641 9.92964844 53.12058594 9.5 52.25 C9.07912109 51.42435547 8.65824219 50.59871094 8.22460938 49.74804688 C6.98953264 47.3181052 5.77373385 44.87939926 4.5625 42.4375 C3.79336422 40.89954174 3.02386504 39.36176514 2.25390625 37.82421875 C1.69574219 36.70660156 1.13757813 35.58898438 0.5625 34.4375 C0.2325 34.4375 -0.0975 34.4375 -0.4375 34.4375 Z " fill="#FD9100" transform="translate(255.4375,15.5625)"/>
<path d="M0 0 C0.7321875 -0.02191406 1.464375 -0.04382813 2.21875 -0.06640625 C5.7090468 0.89581599 7.56507867 2.60519169 9.5 5.5625 C10.29746858 7.54306669 11.03880694 9.54659913 11.7421875 11.5625 C14.39932815 18.88408627 16.9596099 25.91952907 22.5 31.5625 C30.17209347 35.07309926 38.2710176 35.41724663 46.58984375 35.89453125 C54.11356429 36.33272 54.11356429 36.33272 57.375 38.95703125 C59.90374572 42.05753381 60.58001844 43.56157787 60.5 47.5625 C58.46905114 53.68478064 55.3113363 57.28154081 50.6875 61.6875 C50.08357422 62.28175781 49.47964844 62.87601563 48.85742188 63.48828125 C46.03256114 66.24320464 43.23197631 68.77463008 40.05078125 71.109375 C37.22896561 73.32307598 37.22896561 73.32307598 37.0625 76.5078125 C37.2790625 78.08175781 37.2790625 78.08175781 37.5 79.6875 C37.64308594 80.83476562 37.78617187 81.98203125 37.93359375 83.1640625 C38.42995601 86.14223606 38.97627682 89.10098736 39.5625 92.0625 C42.40575836 107.09430004 42.40575836 107.09430004 39.4375 112.49609375 C36.90366088 114.92665138 34.47803248 115.5658064 31.07421875 116.078125 C24.6467426 115.93981222 19.25474942 112.08213891 13.8125 109 C11.60751094 107.75658512 9.39550122 106.52551632 7.17578125 105.30859375 C6.20552002 104.75872803 5.23525879 104.2088623 4.2355957 103.64233398 C1.0236512 102.3744687 -0.26191155 102.47369638 -3.5 103.5625 C-5.1871197 104.32579293 -6.84605657 105.15350323 -8.4765625 106.03125 C-9.394375 106.51980469 -10.3121875 107.00835937 -11.2578125 107.51171875 C-12.20398438 108.02347656 -13.15015625 108.53523438 -14.125 109.0625 C-16.01198827 110.07484371 -17.89996637 111.08534516 -19.7890625 112.09375 C-20.62131348 112.54298828 -21.45356445 112.99222656 -22.31103516 113.45507812 C-26.57745099 115.61350577 -30.77397028 116.41005309 -35.5 115.5625 C-38.19105198 113.38675584 -39.95532928 111.65184144 -41.5 108.5625 C-41.48796094 106.78974785 -41.38754468 105.01744918 -41.25 103.25 C-41.18167969 102.07695312 -41.11335938 100.90390625 -41.04296875 99.6953125 C-40.74285766 96.54916081 -39.98250245 93.80111816 -38.98828125 90.8046875 C-37.35469247 85.26427568 -35.99707516 80.27264789 -37.5 74.5625 C-42.68099094 66.64531005 -50.09297856 60.48182173 -57.31933594 54.47583008 C-60.18283277 51.9633777 -60.44456982 51.13897392 -60.8125 47.3125 C-60.4368782 42.80503843 -59.53021309 40.90350418 -56.5 37.5625 C-50.79457434 35.52910417 -44.91919496 34.76256137 -38.9375 33.9375 C-37.55788086 33.73640625 -37.55788086 33.73640625 -36.15039062 33.53125 C-31.56307997 32.88487122 -27.14623472 32.39242152 -22.5 32.5625 C-22.16935547 31.42167969 -22.16935547 31.42167969 -21.83203125 30.2578125 C-19.98329371 25.12905675 -17.60308179 20.31999067 -15.1875 15.4375 C-14.71376953 14.44878906 -14.24003906 13.46007812 -13.75195312 12.44140625 C-7.59198111 -0.01336616 -7.59198111 -0.01336616 0 0 Z M-0.5 34.5625 C-1.67176518 36.68482979 -2.83754785 38.81007791 -4 40.9375 C-4.33386719 41.54078125 -4.66773438 42.1440625 -5.01171875 42.765625 C-6.88773938 45.97664777 -6.88773938 45.97664777 -7.5 49.5625 C-11.9482941 51.19125999 -16.18266178 52.06775722 -20.875 52.6875 C-22.12023437 52.85507813 -23.36546875 53.02265625 -24.6484375 53.1953125 C-25.58945312 53.31648438 -26.53046875 53.43765625 -27.5 53.5625 C-26.60698344 54.62736855 -25.7104053 55.68925041 -24.8125 56.75 C-24.26851563 57.39582031 -23.72453125 58.04164063 -23.1640625 58.70703125 C-21.40774538 60.7512406 -21.40774538 60.7512406 -18.6875 62.9375 C-14.40402943 68.07766469 -15.38865594 74.26004724 -15.9375 80.625 C-16.11596389 82.27183765 -16.30021463 83.91811275 -16.5 85.5625 C-15.24896484 84.89541016 -15.24896484 84.89541016 -13.97265625 84.21484375 C-2.75726171 78.57502909 -2.75726171 78.57502909 3.36328125 79.796875 C6.68937665 80.98867518 9.65831748 82.63990047 12.65234375 84.50390625 C14.43432174 85.72820879 14.43432174 85.72820879 16.5 85.5625 C16.335 84.28375 16.17 83.005 16 81.6875 C15.82841108 79.97965405 15.66201771 78.27128051 15.5 76.5625 C15.3453125 75.30373047 15.3453125 75.30373047 15.1875 74.01953125 C14.90419547 70.21262666 14.83110546 67.61362 16.921875 64.328125 C18.70141616 62.30522778 20.57809651 60.44924672 22.5 58.5625 C23.85169543 56.91069038 25.18941993 55.2471173 26.5 53.5625 C25.40300781 53.40394531 24.30601562 53.24539062 23.17578125 53.08203125 C21.7211821 52.84741848 20.26676393 52.61168177 18.8125 52.375 C18.09126953 52.27380859 17.37003906 52.17261719 16.62695312 52.06835938 C11.47430171 51.19782009 8.83503208 49.81587425 5.5 45.5625 C3.91796875 42.66796875 3.91796875 42.66796875 2.6875 39.75 C2.26855469 38.77417969 1.84960938 37.79835937 1.41796875 36.79296875 C1.11503906 36.05691406 0.81210937 35.32085937 0.5 34.5625 C0.17 34.5625 -0.16 34.5625 -0.5 34.5625 Z " fill="#FD9100" transform="translate(425.5,105.4375)"/>
<path d="M0 0 C0.7321875 -0.02191406 1.464375 -0.04382813 2.21875 -0.06640625 C5.7090468 0.89581599 7.56507867 2.60519169 9.5 5.5625 C10.29746858 7.54306669 11.03880694 9.54659913 11.7421875 11.5625 C14.39932815 18.88408627 16.9596099 25.91952907 22.5 31.5625 C30.17209347 35.07309926 38.2710176 35.41724663 46.58984375 35.89453125 C54.11356429 36.33272 54.11356429 36.33272 57.375 38.95703125 C59.90374572 42.05753381 60.58001844 43.56157787 60.5 47.5625 C58.46905114 53.68478064 55.3113363 57.28154081 50.6875 61.6875 C50.08357422 62.28175781 49.47964844 62.87601563 48.85742188 63.48828125 C46.03256114 66.24320464 43.23197631 68.77463008 40.05078125 71.109375 C37.22896561 73.32307598 37.22896561 73.32307598 37.0625 76.5078125 C37.2790625 78.08175781 37.2790625 78.08175781 37.5 79.6875 C37.64308594 80.83476562 37.78617187 81.98203125 37.93359375 83.1640625 C38.42995601 86.14223606 38.97627682 89.10098736 39.5625 92.0625 C42.40575836 107.09430004 42.40575836 107.09430004 39.4375 112.49609375 C36.90366088 114.92665138 34.47803248 115.5658064 31.07421875 116.078125 C24.6467426 115.93981222 19.25474942 112.08213891 13.8125 109 C11.60751094 107.75658512 9.39550122 106.52551632 7.17578125 105.30859375 C6.20552002 104.75872803 5.23525879 104.2088623 4.2355957 103.64233398 C1.0236512 102.3744687 -0.26191155 102.47369638 -3.5 103.5625 C-5.1871197 104.32579293 -6.84605657 105.15350323 -8.4765625 106.03125 C-9.394375 106.51980469 -10.3121875 107.00835937 -11.2578125 107.51171875 C-12.20398438 108.02347656 -13.15015625 108.53523438 -14.125 109.0625 C-16.01198827 110.07484371 -17.89996637 111.08534516 -19.7890625 112.09375 C-20.62131348 112.54298828 -21.45356445 112.99222656 -22.31103516 113.45507812 C-26.57745099 115.61350577 -30.77397028 116.41005309 -35.5 115.5625 C-38.19105198 113.38675584 -39.95532928 111.65184144 -41.5 108.5625 C-41.48796094 106.78974785 -41.38754468 105.01744918 -41.25 103.25 C-41.18167969 102.07695312 -41.11335938 100.90390625 -41.04296875 99.6953125 C-40.74285766 96.54916081 -39.98250245 93.80111816 -38.98828125 90.8046875 C-37.35469247 85.26427568 -35.99707516 80.27264789 -37.5 74.5625 C-42.68099094 66.64531005 -50.09297856 60.48182173 -57.31933594 54.47583008 C-60.18283277 51.9633777 -60.44456982 51.13897392 -60.8125 47.3125 C-60.4368782 42.80503843 -59.53021309 40.90350418 -56.5 37.5625 C-50.79457434 35.52910417 -44.91919496 34.76256137 -38.9375 33.9375 C-37.55788086 33.73640625 -37.55788086 33.73640625 -36.15039062 33.53125 C-31.56307997 32.88487122 -27.14623472 32.39242152 -22.5 32.5625 C-22.16935547 31.42167969 -22.16935547 31.42167969 -21.83203125 30.2578125 C-19.98329371 25.12905675 -17.60308179 20.31999067 -15.1875 15.4375 C-14.71376953 14.44878906 -14.24003906 13.46007812 -13.75195312 12.44140625 C-7.59198111 -0.01336616 -7.59198111 -0.01336616 0 0 Z M-0.5 34.5625 C-1.67176518 36.68482979 -2.83754785 38.81007791 -4 40.9375 C-4.33386719 41.54078125 -4.66773437 42.1440625 -5.01171875 42.765625 C-6.88773938 45.97664777 -6.88773938 45.97664777 -7.5 49.5625 C-11.9482941 51.19125999 -16.18266178 52.06775722 -20.875 52.6875 C-22.12023438 52.85507813 -23.36546875 53.02265625 -24.6484375 53.1953125 C-25.58945312 53.31648438 -26.53046875 53.43765625 -27.5 53.5625 C-26.60698344 54.62736855 -25.7104053 55.68925041 -24.8125 56.75 C-24.26851562 57.39582031 -23.72453125 58.04164063 -23.1640625 58.70703125 C-21.40774538 60.7512406 -21.40774538 60.7512406 -18.6875 62.9375 C-14.40402943 68.07766469 -15.38865594 74.26004724 -15.9375 80.625 C-16.11596389 82.27183765 -16.30021463 83.91811275 -16.5 85.5625 C-15.24896484 84.89541016 -15.24896484 84.89541016 -13.97265625 84.21484375 C-2.75726171 78.57502909 -2.75726171 78.57502909 3.36328125 79.796875 C6.68937665 80.98867518 9.65831748 82.63990047 12.65234375 84.50390625 C14.43432174 85.72820879 14.43432174 85.72820879 16.5 85.5625 C16.335 84.28375 16.17 83.005 16 81.6875 C15.82841108 79.97965405 15.66201771 78.27128051 15.5 76.5625 C15.3453125 75.30373047 15.3453125 75.30373047 15.1875 74.01953125 C14.90419547 70.21262666 14.83110546 67.61362 16.921875 64.328125 C18.70141616 62.30522778 20.57809651 60.44924672 22.5 58.5625 C23.85169543 56.91069038 25.18941993 55.2471173 26.5 53.5625 C25.40300781 53.40394531 24.30601563 53.24539062 23.17578125 53.08203125 C21.7211821 52.84741848 20.26676393 52.61168177 18.8125 52.375 C18.09126953 52.27380859 17.37003906 52.17261719 16.62695312 52.06835938 C11.47430171 51.19782009 8.83503208 49.81587425 5.5 45.5625 C3.91796875 42.66796875 3.91796875 42.66796875 2.6875 39.75 C2.26855469 38.77417969 1.84960938 37.79835937 1.41796875 36.79296875 C1.11503906 36.05691406 0.81210938 35.32085937 0.5 34.5625 C0.17 34.5625 -0.16 34.5625 -0.5 34.5625 Z " fill="#FD9100" transform="translate(85.5,105.4375)"/>
<path d="M0 0 C3.70587672 2.27563992 6.81524573 5.05171247 10 8 C10.76441406 8.67289062 11.52882813 9.34578125 12.31640625 10.0390625 C19.56076328 16.76686538 27.12831796 26.38541814 30 36 C29.82405548 40.07379239 28.91146591 43.796865 26.4375 47.0625 C22.59473361 48.54048707 19.05443479 48.61983266 15 48 C10.19144477 45.53980895 8.32109524 41.23575474 5.71875 36.71484375 C0.79861146 28.94326128 -6.12142226 22.78395607 -13.03125 16.8125 C-15.69235013 14.3625983 -15.95452638 13.39410472 -16.375 9.75 C-15.88072704 4.80727042 -14.46171699 3.46171699 -11 0 C-7.36310882 -1.81844559 -3.81058469 -1.1211019 0 0 Z " fill="#FD9100" transform="translate(300,408)"/>
<path d="M0 0 C3.125 1.875 3.125 1.875 5 5 C5.98876625 10.02622846 5.7769173 13.70513784 3.125 18.125 C-1.29486216 20.7769173 -4.97377154 20.98876625 -10 20 C-13.125 18.125 -13.125 18.125 -15 15 C-15.98876625 9.97377154 -15.7769173 6.29486216 -13.125 1.875 C-8.70513784 -0.7769173 -5.02622846 -0.98876625 0 0 Z " fill="#FD9100" transform="translate(261,396)"/>
</svg>
