<?xml version="1.0" encoding="UTF-8"?>
<svg version="1.1" xmlns="http://www.w3.org/2000/svg" width="512" height="512">
<path d="M0 0 C3.18974482 2.97239573 6.04079207 6.08158414 8 10 C8 18.58 8 27.16 8 36 C31.76 36 55.52 36 80 36 C80 28.41 80 20.82 80 13 C83.64921761 4.48515892 87.08713539 1.10296683 95 -3 C102.48050789 -5.49350263 114.00075545 -5.41552608 121.3125 -2.25 C126.48524405 0.63499423 130.3100238 3.62004759 133 9 C135.18431725 17.73726898 134 26.99382928 134 36 C157.76 36 181.52 36 206 36 C206 27.42 206 18.84 206 10 C210.17511125 3.73733313 214.01080437 -1.03505291 221.33984375 -3.4921875 C230.87982044 -5.31332842 242.68555033 -5.6103109 251 0 C254.58322837 3.27967679 257.45225304 6.35675913 259 11 C259.08266486 12.91906917 259.10740663 14.84089474 259.09765625 16.76171875 C259.09443359 17.87998047 259.09121094 18.99824219 259.08789062 20.15039062 C259.07951172 21.31763672 259.07113281 22.48488281 259.0625 23.6875 C259.05798828 24.86634766 259.05347656 26.04519531 259.04882812 27.25976562 C259.03703273 30.17322789 259.0205727 33.08658863 259 36 C259.59166962 35.99555878 260.18333923 35.99111755 260.79293823 35.98654175 C266.99051481 35.94205105 273.18804548 35.91202742 279.38574219 35.89013672 C281.69402919 35.88012316 284.00230364 35.86650837 286.31054688 35.84912109 C289.64195872 35.82466773 292.9732018 35.81347011 296.3046875 35.8046875 C297.834991 35.78920364 297.834991 35.78920364 299.39620972 35.77340698 C310.67765019 35.77166847 321.11938422 37.27704912 329.6875 45.125 C336.26585659 52.09474622 339.12002604 60.18351992 339.13422108 69.59909153 C339.13657331 70.2639422 339.13892554 70.92879288 339.14134905 71.61379054 C339.14802943 73.85147588 339.14758112 76.08910302 339.14717102 78.32679749 C339.15047025 79.94345753 339.15419594 81.56011675 339.1583125 83.17677492 C339.16833399 87.62732052 339.17204954 92.07785264 339.17470181 96.52840793 C339.17860444 101.32546301 339.18818283 106.1225074 339.19691467 110.91955566 C339.21668062 122.50869679 339.22674562 134.09783879 339.23564246 145.68699256 C339.24002529 151.14423359 339.24539213 156.60147365 339.25063133 162.05871391 C339.267644 180.19950821 339.28213813 198.3403019 339.28938007 216.48110294 C339.29128998 221.18914351 339.29321031 225.89718406 339.29516602 230.60522461 C339.29564976 231.77538879 339.2961335 232.94555298 339.2966319 234.15117668 C339.304932 253.10661022 339.33026843 272.06198064 339.36274669 291.01738662 C339.39581795 310.47751119 339.41382891 329.93760369 339.41702431 349.39775652 C339.41918938 360.32428839 339.42793761 371.25072825 339.45348549 382.17723274 C339.47519338 391.482941 339.48324245 400.78853488 339.47351871 410.09426559 C339.46897425 414.84094513 339.4708688 419.5873887 339.49028015 424.33403587 C339.50791414 428.68369712 339.50691221 433.03295026 339.49138286 437.38261586 C339.48900714 438.95200018 339.49332847 440.52141278 339.50521151 442.09075392 C339.58423628 453.22109997 338.79036988 463.77353878 330.9375 472.375 C330.26589844 473.14585937 329.59429687 473.91671875 328.90234375 474.7109375 C319.31802866 482.27003392 309.63948772 482.72235087 297.96498108 482.64164734 C296.24811358 482.64813283 294.53125317 482.65679136 292.81440634 482.66742164 C288.11921136 482.69015161 283.42451431 482.68188166 278.729303 482.66828239 C273.65692163 482.65900664 268.5846375 482.67853275 263.51228333 482.69425964 C253.58419878 482.72032013 243.65629549 482.71926649 233.72818977 482.70822146 C225.65740853 482.69965597 217.58667964 482.70049941 209.51589775 482.70801735 C208.36630254 482.70907224 207.21670733 482.71012713 206.0322759 482.71121398 C203.69672953 482.71338495 201.36118318 482.71557173 199.02563684 482.71777413 C177.13484533 482.73719528 155.24415541 482.72521436 133.35337221 482.70298818 C114.58064257 482.6847387 95.80810963 482.69564082 77.03540039 482.72729492 C55.22336888 482.76407189 33.41146018 482.78107418 11.5993976 482.76788265 C9.27223776 482.76654158 6.94507789 482.76523259 4.61791801 482.76395607 C3.47298155 482.7633254 2.32804509 482.76269474 1.14841359 482.76204496 C-6.90974618 482.75902009 -14.96781314 482.77026753 -23.02595329 482.78720665 C-32.85048677 482.8075482 -42.67474273 482.80663644 -52.49926179 482.77857425 C-57.50947657 482.76481785 -62.51920714 482.76058264 -67.52940369 482.78252411 C-72.12081578 482.80236561 -76.71131879 482.79424105 -81.30266852 482.76432977 C-82.95866128 482.75834869 -84.61472862 482.76236328 -86.27066123 482.777693 C-97.44644764 482.87356689 -106.7310791 481.52268629 -115.46421093 473.82912177 C-123.12825896 466.23723206 -125.39677892 457.06376106 -125.52909014 446.48217079 C-125.53519474 444.26504523 -125.52173735 442.04850525 -125.50793457 439.8314209 C-125.51255006 438.20871469 -125.51890731 436.58601267 -125.52684355 434.9633193 C-125.54347108 430.5284753 -125.5353206 426.09397762 -125.52289867 421.65913272 C-125.51382346 416.86695485 -125.52783014 412.07483524 -125.53881836 407.28266907 C-125.55658182 397.90438155 -125.55277327 388.52622227 -125.5411678 379.14792979 C-125.5321252 371.5243243 -125.53091305 363.9007547 -125.53526306 356.27714539 C-125.53587599 355.19109476 -125.53648893 354.10504413 -125.53712043 352.98608288 C-125.53839936 350.77962179 -125.53969622 348.57316071 -125.5410108 346.36669964 C-125.55241023 325.68868642 -125.53931287 305.0107442 -125.51780933 284.33274263 C-125.49993894 266.5995598 -125.50304323 248.86648172 -125.52148438 231.13330078 C-125.54290231 210.52803336 -125.55131165 189.92282813 -125.53903532 169.31755114 C-125.53776116 167.11931897 -125.53650367 164.9210868 -125.53526306 162.72285461 C-125.53464596 161.64135198 -125.53402886 160.55984934 -125.53339306 159.4455739 C-125.52994293 151.83330419 -125.53576123 144.22107401 -125.54518127 136.60881042 C-125.55641288 127.32887071 -125.55333674 118.04906629 -125.5320583 108.76914203 C-125.52156357 104.03660442 -125.51739915 99.30429219 -125.53065491 94.57175636 C-125.54261732 90.23530454 -125.53595314 85.89928598 -125.5147447 81.56287318 C-125.51029489 79.99841799 -125.51250826 78.43392582 -125.52224785 76.86949462 C-125.59805416 63.67583114 -123.77130037 53.78997232 -114.35546875 44.09765625 C-105.37737992 36.10224381 -93.82008646 35.68817285 -82.3046875 35.8046875 C-81.23123077 35.8075174 -80.15777405 35.81034729 -79.05178833 35.81326294 C-75.65940695 35.82436178 -72.26730013 35.84944686 -68.875 35.875 C-66.55989968 35.88504312 -64.24479517 35.89416662 -61.9296875 35.90234375 C-56.28636636 35.92426727 -50.6432028 35.95764068 -45 36 C-45.01571045 35.27409668 -45.0314209 34.54819336 -45.04760742 33.80029297 C-45.11020355 30.49194212 -45.14906912 27.18371619 -45.1875 23.875 C-45.21263672 22.73289062 -45.23777344 21.59078125 -45.26367188 20.4140625 C-45.32395001 13.50216994 -45.1337169 8.64145837 -40.45703125 3.20703125 C-29.98833841 -5.67022135 -11.88315164 -8.04056242 0 0 Z M-28 15 C-28 21.93 -28 28.86 -28 36 C-21.73 36 -15.46 36 -9 36 C-9 29.07 -9 22.14 -9 15 C-18.5 11.0366277 -18.5 11.0366277 -28 15 Z M97 16 C96.45162405 18.21269202 96.45162405 18.21269202 96.609375 20.66796875 C96.61936523 21.47258545 96.62935547 22.27720215 96.63964844 23.10620117 C96.67606445 24.12302979 96.71248047 25.1398584 96.75 26.1875 C96.8325 29.425625 96.915 32.66375 97 36 C103.6 36 110.2 36 117 36 C117.0825 32.761875 117.165 29.52375 117.25 26.1875 C117.30462402 24.66225708 117.30462402 24.66225708 117.36035156 23.10620117 C117.3703418 22.30158447 117.38033203 21.49696777 117.390625 20.66796875 C117.41157227 19.84578857 117.43251953 19.0236084 117.45410156 18.17651367 C117.18066597 15.83956493 117.18066597 15.83956493 115.15527344 14.2331543 C112.31932367 12.61054643 110.25172012 12.6006121 107 12.625 C105.453125 12.61339844 105.453125 12.61339844 103.875 12.6015625 C100.58897348 13.05696291 99.37482485 13.72543576 97 16 Z M223 15 C223 21.93 223 28.86 223 36 C229.27 36 235.54 36 242 36 C242 29.07 242 22.14 242 15 C232.5 11.0366277 232.5 11.0366277 223 15 Z M-104.375 58.4375 C-115.38380423 75.79753743 -108 99.44362215 -108 120 C33.9 120 175.8 120 322 120 C325.08248778 86.89896357 325.08248778 86.89896357 317 57 C311.56987873 52.89429855 306.34873594 52.8560442 299.74316406 52.88647461 C298.49870766 52.88625557 298.49870766 52.88625557 297.22911072 52.8860321 C294.4912554 52.88672788 291.75346841 52.89450461 289.015625 52.90234375 C287.11562131 52.90420912 285.21561714 52.90563246 283.31561279 52.90663147 C278.31791859 52.91044727 273.32025351 52.92026959 268.3225708 52.93133545 C263.22156162 52.94156969 258.12054774 52.94613341 253.01953125 52.95117188 C243.01300805 52.96189268 233.00650645 52.97895788 223 53 C223 57.95 223 62.9 223 68 C227.07739358 70.03869679 230.22231817 70.61488407 234.66015625 71.2421875 C237.61978518 72.20073176 238.46616968 73.33546144 240 76 C240.50679416 79.47515996 240.39059083 81.2932166 238.6875 84.375 C233.71896945 87.37922777 228.07567906 86.58792601 222.52734375 85.52734375 C217.12574567 83.98005922 212.62144664 81.35376134 209 77 C207 72 207 72 206 53 C170.03 53 134.06 53 97 53 C97 57.62 97 62.24 97 67 C101.81400195 69.88840117 104.48160366 70.61054565 109.79296875 71.375 C112 72 112 72 114 75 C114.30078125 76.9375 114.30078125 76.9375 114.3125 79 C114.32925781 79.680625 114.34601563 80.36125 114.36328125 81.0625 C113.87548321 83.66408953 113.16622974 84.4864164 111 86 C102.9862312 87.35392441 96.14206049 85.54515321 89 82 C87.90558594 81.49339844 87.90558594 81.49339844 86.7890625 80.9765625 C82.87535049 78.84025682 82.32652788 73.97958363 81 70 C80.67 64.39 80.34 58.78 80 53 C44.36 53 8.72 53 -28 53 C-28 57.62 -28 62.24 -28 67 C-23.67680704 70.24239472 -21.47027428 70.60614457 -16.33984375 71.27734375 C-13.36044471 72.19752542 -12.53419861 73.32990434 -11 76 C-10.49320584 79.47515996 -10.60940917 81.2932166 -12.3125 84.375 C-17.28244427 87.38008258 -22.96572024 86.61441802 -28.5078125 85.4921875 C-34.66071114 83.67760383 -39.10999909 80.97390505 -42.62109375 75.44921875 C-44.41785794 70.95476328 -44.56105489 66.92268893 -44.6875 62.125 C-44.72166016 61.24585937 -44.75582031 60.36671875 -44.79101562 59.4609375 C-44.8729314 57.30772295 -44.93815579 55.15388449 -45 53 C-51.8317953 52.92365129 -58.66347968 52.87127501 -65.49560547 52.83520508 C-67.8175874 52.82016089 -70.13954112 52.79972055 -72.46142578 52.77368164 C-75.80768823 52.73710655 -79.15357344 52.72022946 -82.5 52.70703125 C-84.04578735 52.68380547 -84.04578735 52.68380547 -85.62280273 52.66011047 C-92.74609176 52.65846414 -99.14327603 53.06809908 -104.375 58.4375 Z M-108 137 C-108.061875 185.22125 -108.12375 233.4425 -108.1875 283.125 C-108.21481201 298.36703613 -108.24212402 313.60907227 -108.27026367 329.31298828 C-108.2802952 342.94187825 -108.2802952 342.94187825 -108.28633118 356.57077026 C-108.28913307 362.65470848 -108.30015566 368.7385644 -108.31672668 374.82247925 C-108.33580263 381.83640599 -108.34451254 388.85025359 -108.34033485 395.86420649 C-108.33852504 399.45331322 -108.34142454 403.04224298 -108.35764539 406.63131738 C-108.37490096 410.47263223 -108.36899304 414.31371037 -108.36076355 418.15505981 C-108.36950154 419.27730894 -108.37823954 420.39955807 -108.38724232 421.55581474 C-108.35049116 427.91155313 -107.98013388 432.7327178 -103.5 437.64453125 C-98.86711127 441.25191075 -95.95201148 442.12511692 -90.1647768 442.12304783 C-88.32703441 442.1260344 -88.32703441 442.1260344 -86.4521659 442.12908131 C-85.08540472 442.12622809 -83.71864374 442.12328249 -82.35188293 442.12025452 C-80.90561345 442.12069035 -79.45934404 442.12156548 -78.01307505 442.12284368 C-74.02929223 442.12508628 -70.04553614 442.12107055 -66.06175673 442.11606562 C-61.76933582 442.11175795 -57.47691648 442.11320777 -53.18449402 442.1139679 C-45.74440464 442.11449293 -38.30432401 442.11134827 -30.86423683 442.10573006 C-20.10704287 442.09761228 -9.34985315 442.09499955 1.40734354 442.09374207 C18.85904849 442.09155199 36.31074876 442.08489308 53.76245117 442.07543945 C70.71785458 442.0662642 87.67325672 442.05918392 104.62866211 442.05493164 C105.67332239 442.05466892 106.71798267 442.05440619 107.79429933 442.05413551 C113.03491235 442.0528305 118.27552539 442.05156678 123.51613843 442.05032361 C167.01076219 442.03995236 210.50538085 442.02233523 254 442 C254.00586624 441.24689041 254.01173248 440.49378082 254.01777649 439.71784973 C254.07574392 432.61129697 254.14784357 425.50505976 254.23571491 418.39882374 C254.28039218 414.74564138 254.31965377 411.09256985 254.34643555 407.43920898 C254.37249545 403.91173821 254.41291592 400.38469454 254.46318626 396.85748863 C254.48792576 394.86072321 254.49789298 392.86379245 254.50764465 390.86689758 C254.53733589 389.03556526 254.53733589 389.03556526 254.56762695 387.16723633 C254.57873001 386.09468094 254.58983307 385.02212555 254.60127258 383.91706848 C255.06195063 380.5467725 255.8926071 378.66277249 258 376 C278.70647652 370.82338087 300.65921633 374.35567973 322 374 C322 295.79 322 217.58 322 137 C180.1 137 38.2 137 -108 137 Z M271 391 C271 403.87 271 416.74 271 430 C276.51198609 425.31636612 276.51198609 425.31636612 281.73217773 420.3972168 C282.37231308 419.76023361 283.01244843 419.12325043 283.67198181 418.46696472 C284.33581375 417.80110855 284.99964569 417.13525238 285.68359375 416.44921875 C286.38396255 415.74980667 287.08433136 415.05039459 287.80592346 414.32978821 C289.27182762 412.86455991 290.73648839 411.39808666 292.19995117 409.93041992 C294.45182244 407.67314318 296.7090454 405.42131555 298.96679688 403.16992188 C300.39355035 401.74250846 301.81999406 400.31478535 303.24609375 398.88671875 C303.92409531 398.21074142 304.60209686 397.5347641 305.30064392 396.83830261 C306.22774925 395.90646904 306.22774925 395.90646904 307.17358398 394.95581055 C307.72094711 394.40765182 308.26831024 393.8594931 308.83226013 393.29472351 C310.11162549 392.1668257 310.11162549 392.1668257 310 391 C297.13 391 284.26 391 271 391 Z M318.88111877 406.00535583 C317.93583177 406.95079278 316.99335834 407.89904722 316.05297852 408.84936523 C315.28216949 409.62236465 315.28216949 409.62236465 314.49578857 410.41098022 C313.37609265 411.53449262 312.25755374 412.65915897 311.14001656 413.78481865 C309.37325361 415.56428704 307.60343599 417.3406636 305.83274841 419.1162262 C301.43423624 423.52814807 297.04112856 427.94543928 292.64782715 432.36254883 C288.93962591 436.09044299 285.22941388 439.81631329 281.51646233 443.53947639 C279.76947389 445.29296815 278.02551543 447.04943654 276.28163147 448.80601501 C275.21337413 449.87790409 274.14497659 450.94965346 273.07641602 452.02124023 C272.3461747 452.75923103 272.3461747 452.75923103 271.60118103 453.51213074 C267.57349232 457.54045429 265.74047685 458.12501905 260.07311726 458.12863445 C258.16646037 458.13347112 258.16646037 458.13347112 256.22128516 458.1384055 C254.79745112 458.13693412 253.37361717 458.13536639 251.94978333 458.13371277 C250.44749335 458.13557942 248.94520386 458.13787953 247.44291514 458.14057809 C243.29936818 458.14672084 239.15584132 458.1465596 235.01229084 458.14538372 C230.54929787 458.14518033 226.08631147 458.15069263 221.62332153 458.15544128 C212.87283817 458.16376248 204.12236154 458.16649681 195.37187455 458.16705366 C188.26004295 458.16752823 181.14821357 458.16958001 174.03638268 458.17275429 C153.88545962 458.1815657 133.73454189 458.18617303 113.58361689 458.18542381 C112.49633337 458.18538386 111.40904986 458.1853439 110.28881836 458.18530273 C108.65590754 458.18524141 108.65590754 458.18524141 106.99000861 458.18517885 C89.35093811 458.18477248 71.71188896 458.19433851 54.07282463 458.2084411 C35.97331737 458.2227979 17.87382053 458.22971163 -0.22569257 458.22884732 C-10.39197364 458.22851506 -20.55823234 458.23127479 -30.72450829 458.24202538 C-39.38184564 458.25112133 -48.03915049 458.25331316 -56.69649055 458.24651595 C-61.11450073 458.24324587 -65.53244851 458.2432116 -69.9504528 458.2518692 C-73.99518526 458.25971383 -78.03980562 458.25832366 -82.08453528 458.24958507 C-83.54757874 458.24804555 -85.01063049 458.24988321 -86.47366419 458.25544515 C-88.4637353 458.26250938 -90.45384066 458.25601584 -92.44391155 458.24888897 C-93.54895273 458.24910634 -94.65399391 458.24932371 -95.79252118 458.24954766 C-99.46498889 457.96382302 -102.49710935 457.11589916 -106 456 C-105.01431932 459.54845044 -104.11099465 460.91120428 -101.1875 463.25 C-96.18073205 465.99881378 -91.81227646 466.12534074 -86.1573658 466.12863445 C-85.47834428 466.13038749 -84.79932276 466.13214053 -84.09972483 466.13394669 C-81.81989098 466.13860597 -79.54012093 466.13614137 -77.26028442 466.13371277 C-75.61103732 466.13558077 -73.96179066 466.13788144 -72.3125447 466.14057809 C-67.77672117 466.14670374 -63.24091605 466.1465616 -58.70508933 466.14538372 C-53.81474252 466.1451799 -48.92440166 466.15069658 -44.03405762 466.15544128 C-34.45179062 466.16375245 -24.86952977 466.16649633 -15.28725947 466.16705366 C-7.49996566 466.16752858 0.28732612 466.16958209 8.07461929 466.17275429 C30.1446313 466.18156192 52.21463844 466.18617346 74.28465222 466.18542381 C75.47478437 466.18538386 76.66491652 466.1853439 77.89111328 466.18530273 C79.08269551 466.18526185 80.27427774 466.18522097 81.50196852 466.18517885 C100.81891111 466.18477229 120.13583422 466.19434415 139.45277117 466.2084411 C159.27903222 466.22279579 179.10528376 466.22971179 198.93155015 466.22884732 C210.06582405 466.22851505 221.20007754 466.23127531 232.33434677 466.24202538 C241.8132312 466.25111842 251.29208594 466.25331546 260.77097283 466.24651595 C265.60823206 466.24324477 270.44543429 466.2432156 275.28268814 466.2518692 C279.71033514 466.25970867 284.13787969 466.25832898 288.56552412 466.24958507 C290.16777708 466.24804445 291.77003759 466.24988733 293.37228166 466.25544515 C295.55020632 466.26249986 297.72777106 466.257216 299.90568352 466.24888897 C301.11542017 466.24910634 302.32515682 466.24932371 303.57155216 466.24954766 C309.7076492 465.80291737 314.65287331 464.46788021 319 460 C322.38885598 453.87557992 322.39614384 448.49884478 322.29296875 441.59765625 C322.28872391 440.51995468 322.28447906 439.44225311 322.28010559 438.33189392 C322.26338719 434.90850254 322.22574683 431.4857118 322.1875 428.0625 C322.17244436 425.73373249 322.1587575 423.40495571 322.14648438 421.07617188 C322.11350608 415.38391156 322.06337483 409.69199871 322 404 C320.63481919 403.88543628 320.63481919 403.88543628 318.88111877 406.00535583 Z " fill="#FD9100" transform="translate(149,17)"/>
<path d="M0 0 C0.93549683 -0.00428513 1.87099365 -0.00857025 2.83483887 -0.01298523 C4.80834139 -0.01871593 6.78186503 -0.01923809 8.75537109 -0.01489258 C11.77087437 -0.01172963 14.78539894 -0.03521786 17.80078125 -0.06054688 C19.72135293 -0.06281973 21.64192725 -0.06352343 23.5625 -0.0625 C24.91112122 -0.07631462 24.91112122 -0.07631462 26.2869873 -0.09040833 C32.37140087 -0.04552485 35.86294558 0.88247683 40.28125 5.30078125 C40.54867554 7.14009094 40.54867554 7.14009094 40.57177734 9.39575195 C40.58453705 10.24035477 40.59729675 11.08495758 40.61044312 11.95515442 C40.61266876 12.86971909 40.61489441 13.78428375 40.6171875 14.7265625 C40.6238443 15.66630417 40.6305011 16.60604584 40.63735962 17.57426453 C40.64749775 19.5656844 40.65217628 21.55713833 40.65185547 23.54858398 C40.65621792 26.59090566 40.69249535 29.63176437 40.73046875 32.67382812 C40.73633886 34.60806795 40.74030695 36.54231468 40.7421875 38.4765625 C40.75655853 39.38505447 40.77092957 40.29354645 40.78573608 41.22956848 C40.75793809 45.08787113 40.49504194 47.81141454 38.93798828 51.37548828 C34.68264 54.45926668 30.43684704 53.99510078 25.3125 53.9296875 C23.70381042 53.93330544 23.70381042 53.93330544 22.06262207 53.93699646 C19.79643046 53.93601749 17.5302151 53.92261208 15.26416016 53.89770508 C11.79377063 53.863405 8.32592777 53.87704272 4.85546875 53.89648438 C2.65363498 53.88958587 0.4518078 53.87991346 -1.75 53.8671875 C-2.78862183 53.87214737 -3.82724365 53.87710724 -4.89733887 53.88221741 C-12.05977902 53.76501723 -12.05977902 53.76501723 -15.34179688 51.45288086 C-18.1195609 47.1113933 -17.89533529 42.88272933 -17.921875 37.90625 C-17.92757507 37.08127518 -17.93327515 36.25630035 -17.93914795 35.40632629 C-17.94859123 33.66046427 -17.95512926 31.91458448 -17.95898438 30.16870117 C-17.96867586 27.50863207 -17.99969912 24.84934047 -18.03125 22.18945312 C-18.03778189 20.49088999 -18.04303163 18.79232135 -18.046875 17.09375 C-18.0592218 16.30292526 -18.0715686 15.51210052 -18.08428955 14.6973114 C-18.06499786 9.87196146 -17.56314023 6.38872029 -14.71875 2.30078125 C-10.35682591 -0.54317278 -5.03743675 -0.0051065 0 0 Z M-0.71875 17.30078125 C-0.71875 23.57078125 -0.71875 29.84078125 -0.71875 36.30078125 C7.20125 36.30078125 15.12125 36.30078125 23.28125 36.30078125 C23.28125 30.03078125 23.28125 23.76078125 23.28125 17.30078125 C15.36125 17.30078125 7.44125 17.30078125 -0.71875 17.30078125 Z " fill="#FD9100" transform="translate(105.71875,371.69921875)"/>
<path d="M0 0 C0.91330078 -0.00191345 1.82660156 -0.0038269 2.76757812 -0.00579834 C4.69401323 -0.00715626 6.6204576 -0.00348732 8.546875 0.00488281 C11.48979311 0.01558787 14.4321008 0.00497416 17.375 -0.0078125 C19.25000134 -0.00649084 21.12500231 -0.0039283 23 0 C23.87720703 -0.00404846 24.75441406 -0.00809692 25.65820312 -0.01226807 C30.97411577 0.02838578 35.09204674 0.18965544 39.28320312 3.80297852 C41.18795545 7.65796181 40.96778103 11.42305975 40.96875 15.66796875 C40.98017029 17.04004234 40.98017029 17.04004234 40.99182129 18.43983459 C41.00261493 20.37221551 41.00547838 22.30465473 41.00097656 24.23706055 C41.00000444 27.1896314 41.04162872 30.13960132 41.0859375 33.09179688 C41.09114487 34.97134876 41.09383269 36.85090966 41.09375 38.73046875 C41.1183429 40.05098488 41.1183429 40.05098488 41.14343262 41.3981781 C41.09727641 45.50310861 40.80953853 47.75670544 38.64086914 51.32226562 C34.02244177 54.17983903 29.98619207 53.96443853 24.65234375 53.89453125 C23.07907066 53.89814919 23.07907066 53.89814919 21.47401428 53.90184021 C19.26087658 53.90086232 17.04771425 53.88748265 14.8347168 53.86254883 C11.44560828 53.82820716 8.05910244 53.84190236 4.66992188 53.86132812 C2.51821806 53.85443058 0.36652098 53.84475903 -1.78515625 53.83203125 C-2.79876724 53.83699112 -3.81237823 53.84195099 -4.85670471 53.84706116 C-11.84496547 53.72989659 -11.84496547 53.72989659 -15.10717773 51.41772461 C-17.95398566 47.01901963 -17.67698616 42.6723282 -17.703125 37.6171875 C-17.70882507 36.76764496 -17.71452515 35.91810242 -17.72039795 35.04281616 C-17.72984105 33.24567915 -17.73637919 31.44852487 -17.74023438 29.65136719 C-17.74993891 26.90789463 -17.78096785 24.16517173 -17.8125 21.421875 C-17.81903051 19.67448361 -17.82428079 17.92708687 -17.828125 16.1796875 C-17.8404718 15.3618277 -17.8528186 14.5439679 -17.86553955 13.70132446 C-17.8476746 9.1132084 -17.63731638 5.88593423 -14.5 2.265625 C-10.07135226 -0.47542703 -5.0440181 -0.02327901 0 0 Z M-0.5 17.265625 C-0.5 23.535625 -0.5 29.805625 -0.5 36.265625 C7.42 36.265625 15.34 36.265625 23.5 36.265625 C23.5 29.995625 23.5 23.725625 23.5 17.265625 C15.58 17.265625 7.66 17.265625 -0.5 17.265625 Z " fill="#FD9100" transform="translate(290.5,371.734375)"/>
<path d="M0 0 C1.45193253 -0.02409439 1.45193253 -0.02409439 2.93319702 -0.04867554 C7.35698797 -0.09305913 11.7806285 -0.13417861 16.20458984 -0.15722656 C18.54030306 -0.17380343 20.87596519 -0.20111587 23.21142578 -0.23925781 C26.57432439 -0.29391204 29.93603402 -0.31588233 33.29931641 -0.33056641 C34.34421234 -0.35323578 35.38910828 -0.37590515 36.46566772 -0.39926147 C43.55546611 -0.37852143 43.55546611 -0.37852143 46.99511719 2.13183594 C48.86410174 6.39089235 48.91215619 10.08553737 48.86962891 14.69287109 C48.87345581 15.60617188 48.87728271 16.51947266 48.88122559 17.46044922 C48.88394144 19.38689276 48.87660315 21.31337337 48.85986328 23.23974609 C48.83844859 26.18329318 48.85967561 29.12439965 48.88525391 32.06787109 C48.88261057 33.94287646 48.87748547 35.81788032 48.86962891 37.69287109 C48.87772583 38.57007813 48.88582275 39.44728516 48.89416504 40.35107422 C48.83221942 44.40109082 48.64586501 46.6701784 46.55517578 50.22412109 C43.30550232 53.1101747 40.36554158 53.31373238 36.12402344 53.35400391 C35.30282013 53.36361145 34.48161682 53.37321899 33.63552856 53.38311768 C32.31668167 53.38949249 32.31668167 53.38949249 30.97119141 53.39599609 C30.05884735 53.40169617 29.1465033 53.40739624 28.20651245 53.41326904 C26.27831171 53.42270414 24.35009496 53.4292471 22.421875 53.43310547 C19.48099508 53.44281294 16.54081373 53.47385111 13.60009766 53.50537109 C11.72379971 53.51190153 9.84749678 53.51715184 7.97119141 53.52099609 C7.09600861 53.5333429 6.22082581 53.5456897 5.31912231 53.55841064 C0.27598303 53.54012083 -3.36523643 53.13806066 -7.66162109 50.19287109 C-10.60474638 46.62721255 -9.96733876 41.88864892 -9.96240234 37.48193359 C-9.96668747 36.63617767 -9.9709726 35.79042175 -9.97538757 34.91903687 C-9.98112302 33.13206882 -9.98163692 31.34507744 -9.97729492 29.55810547 C-9.97414023 26.83438924 -9.99758494 24.1117652 -10.02294922 21.38818359 C-10.02522293 19.64860162 -10.02592537 17.90901675 -10.02490234 16.16943359 C-10.03871696 14.9550914 -10.03871696 14.9550914 -10.05281067 13.71621704 C-10.01305286 8.81768156 -9.37972518 5.43631076 -6.66162109 1.19287109 C-4.25492069 -0.01047911 -2.68872599 0.04049086 0 0 Z M7.33837891 17.19287109 C7.33837891 23.46287109 7.33837891 29.73287109 7.33837891 36.19287109 C15.25837891 36.19287109 23.17837891 36.19287109 31.33837891 36.19287109 C31.33837891 29.92287109 31.33837891 23.65287109 31.33837891 17.19287109 C23.41837891 17.19287109 15.49837891 17.19287109 7.33837891 17.19287109 Z " fill="#FD9100" transform="translate(282.66162109375,196.80712890625)"/>
<path d="M0 0 C1.45193253 -0.02409439 1.45193253 -0.02409439 2.93319702 -0.04867554 C7.35698797 -0.09305913 11.7806285 -0.13417861 16.20458984 -0.15722656 C18.54030306 -0.17380343 20.87596519 -0.20111587 23.21142578 -0.23925781 C26.57432439 -0.29391204 29.93603402 -0.31588233 33.29931641 -0.33056641 C34.34421234 -0.35323578 35.38910828 -0.37590515 36.46566772 -0.39926147 C43.5489794 -0.3785404 43.5489794 -0.3785404 46.99511719 2.1159668 C48.88793867 6.45170455 48.9116889 10.26014865 48.86962891 14.94677734 C48.87345581 15.88464584 48.87728271 16.82251434 48.88122559 17.7888031 C48.88394154 19.76652096 48.87660256 21.74427494 48.85986328 23.72192383 C48.83842502 26.7488602 48.85968794 29.7734296 48.88525391 32.80029297 C48.88261104 34.72412633 48.87748693 36.64795822 48.86962891 38.57177734 C48.87772583 39.47601944 48.88582275 40.38026154 48.89416504 41.31190491 C48.80126431 47.53384244 48.80126431 47.53384244 46.55517578 50.73168945 C43.18106162 52.95570633 40.10986302 53.31615995 36.12402344 53.35400391 C35.30282013 53.36361145 34.48161682 53.37321899 33.63552856 53.38311768 C32.31668167 53.38949249 32.31668167 53.38949249 30.97119141 53.39599609 C30.05884735 53.40169617 29.1465033 53.40739624 28.20651245 53.41326904 C26.27831171 53.42270414 24.35009496 53.4292471 22.421875 53.43310547 C19.48099508 53.44281294 16.54081373 53.47385111 13.60009766 53.50537109 C11.72379971 53.51190153 9.84749678 53.51715184 7.97119141 53.52099609 C7.09600861 53.5333429 6.22082581 53.5456897 5.31912231 53.55841064 C0.29638034 53.54019481 -3.42523771 53.20187574 -7.66162109 50.19287109 C-10.28263169 46.03652865 -9.96793208 41.37537708 -9.96240234 36.60302734 C-9.96668747 35.78088242 -9.9709726 34.95873749 -9.97538757 34.11167908 C-9.98111481 32.3777661 -9.981643 30.6438291 -9.97729492 28.90991211 C-9.97413558 26.26748384 -9.99761118 23.62617671 -10.02294922 20.98388672 C-10.02522256 19.294435 -10.02592555 17.60498028 -10.02490234 15.91552734 C-10.03411209 15.13097672 -10.04332184 14.34642609 -10.05281067 13.5381012 C-10.01236218 8.70543841 -9.32905303 5.38362085 -6.66162109 1.19287109 C-4.25492069 -0.01047911 -2.68872599 0.04049086 0 0 Z M7.33837891 17.19287109 C7.33837891 23.46287109 7.33837891 29.73287109 7.33837891 36.19287109 C15.25837891 36.19287109 23.17837891 36.19287109 31.33837891 36.19287109 C31.33837891 29.92287109 31.33837891 23.65287109 31.33837891 17.19287109 C23.41837891 17.19287109 15.49837891 17.19287109 7.33837891 17.19287109 Z " fill="#FD9100" transform="translate(97.66162109375,196.80712890625)"/>
<path d="M0 0 C0.82120331 -0.00960754 1.64240662 -0.01921509 2.48849487 -0.02911377 C3.36772614 -0.03336365 4.2469574 -0.03761353 5.15283203 -0.04199219 C6.06517609 -0.04769226 6.97752014 -0.05339233 7.91751099 -0.05926514 C9.84571172 -0.06870024 11.77392848 -0.07524319 13.70214844 -0.07910156 C16.64302836 -0.08880904 19.5832097 -0.1198472 22.52392578 -0.15136719 C24.40022373 -0.15789762 26.27652666 -0.16314793 28.15283203 -0.16699219 C29.02801483 -0.17933899 29.90319763 -0.19168579 30.80490112 -0.20440674 C35.84804041 -0.18611693 39.48925986 0.21594324 43.78564453 3.16113281 C46.72876982 6.72679135 46.09136219 11.46535498 46.08642578 15.87207031 C46.09071091 16.71782623 46.09499603 17.56358215 46.09941101 18.43496704 C46.10514646 20.22193508 46.10566035 22.00892647 46.10131836 23.79589844 C46.09816366 26.51961466 46.12160838 29.24223871 46.14697266 31.96582031 C46.14924637 33.70540228 46.14994881 35.44498716 46.14892578 37.18457031 C46.15813553 37.99413177 46.16734528 38.80369324 46.17683411 39.63778687 C46.13707629 44.53632234 45.50374862 47.91769315 42.78564453 52.16113281 C40.40533492 53.35128762 38.88901342 53.31298784 36.23168945 53.35400391 C35.28698288 53.37006683 34.34227631 53.38612976 33.36894226 53.40267944 C29.0465056 53.44710544 24.72422286 53.48819314 20.40161133 53.51123047 C18.1212341 53.52779377 15.84090887 53.55508846 13.56079102 53.59326172 C10.27479083 53.64800062 6.99000787 53.66990038 3.70361328 53.68457031 C2.68575241 53.70723969 1.66789154 53.72990906 0.6191864 53.75326538 C-3.86725866 53.7398646 -6.4822851 53.6127487 -10.35742188 51.22216797 C-12.94067588 46.96384051 -12.91726874 43.55768225 -12.84326172 38.66113281 C-12.84567368 37.74783203 -12.84808563 36.83453125 -12.85057068 35.89355469 C-12.84959337 33.96707812 -12.8362274 32.04057308 -12.8112793 30.11425781 C-12.77696555 27.17057607 -12.790627 24.22989692 -12.81005859 21.28613281 C-12.80315986 19.41112007 -12.79348723 17.53611506 -12.78076172 15.66113281 C-12.78572159 14.78392578 -12.79068146 13.90671875 -12.79579163 13.00292969 C-12.71806622 8.95695781 -12.51920718 6.67870957 -10.42895508 3.12988281 C-7.18122012 0.24268904 -4.24062529 0.04026305 0 0 Z M4.78564453 17.16113281 C4.78564453 23.43113281 4.78564453 29.70113281 4.78564453 36.16113281 C12.70564453 36.16113281 20.62564453 36.16113281 28.78564453 36.16113281 C28.78564453 29.89113281 28.78564453 23.62113281 28.78564453 17.16113281 C20.86564453 17.16113281 12.94564453 17.16113281 4.78564453 17.16113281 Z " fill="#FD9100" transform="translate(193.21435546875,371.8388671875)"/>
<path d="M0 0 C1.07245972 -0.00241196 2.14491943 -0.00482391 3.24987793 -0.00730896 C5.51606954 -0.00632999 7.7822849 0.00707542 10.04833984 0.03198242 C13.51872937 0.0662825 16.98657223 0.05264478 20.45703125 0.03320312 C22.65886502 0.04010163 24.8606922 0.04977404 27.0625 0.0625 C28.10112183 0.05754013 29.13974365 0.05258026 30.20983887 0.04747009 C37.37227902 0.16467027 37.37227902 0.16467027 40.65429688 2.47680664 C43.4320609 6.8182942 43.20783529 11.04695817 43.234375 16.0234375 C43.24007507 16.84841232 43.24577515 17.67338715 43.25164795 18.52336121 C43.26109123 20.26922323 43.26762926 22.01510302 43.27148438 23.76098633 C43.28117586 26.42105543 43.31219912 29.08034703 43.34375 31.74023438 C43.35028189 33.43879751 43.35553163 35.13736615 43.359375 36.8359375 C43.3717218 37.62676224 43.3840686 38.41758698 43.39678955 39.2323761 C43.37749786 44.05772604 42.87564023 47.54096721 40.03125 51.62890625 C35.70190831 54.43772821 30.5234865 53.91757128 25.53125 53.89453125 C24.61794922 53.8964447 23.70464844 53.89835815 22.76367188 53.90032959 C20.83723677 53.90168751 18.9107924 53.89801857 16.984375 53.88964844 C14.04145689 53.87894338 11.0991492 53.88955709 8.15625 53.90234375 C6.28124866 53.90102209 4.40624769 53.89845955 2.53125 53.89453125 C1.21543945 53.90060394 1.21543945 53.90060394 -0.12695312 53.90679932 C-5.44449665 53.866133 -9.56006336 53.70295244 -13.75415039 50.09155273 C-15.65667517 46.23411205 -15.41646753 42.47176455 -15.40234375 38.2265625 C-15.4075856 37.31184677 -15.41282745 36.39713104 -15.41822815 35.45469666 C-15.42464466 33.52229832 -15.42331615 31.5898609 -15.41479492 29.6574707 C-15.40628969 26.70518207 -15.43504331 23.75483167 -15.46679688 20.80273438 C-15.46840916 18.92317766 -15.46783083 17.04361753 -15.46484375 15.1640625 C-15.47607773 14.28371841 -15.48731171 13.40337433 -15.49888611 12.49635315 C-15.45597606 8.71084857 -15.16132556 6.06640326 -13.62329102 2.57226562 C-9.37486932 -0.53795572 -5.13217457 -0.0655132 0 0 Z M2.03125 17.62890625 C2.03125 23.89890625 2.03125 30.16890625 2.03125 36.62890625 C9.95125 36.62890625 17.87125 36.62890625 26.03125 36.62890625 C26.03125 30.35890625 26.03125 24.08890625 26.03125 17.62890625 C18.11125 17.62890625 10.19125 17.62890625 2.03125 17.62890625 Z " fill="#FD9100" transform="translate(195.96875,196.37109375)"/>
<path d="M0 0 C0.96795502 -0.01283524 1.93591003 -0.02567047 2.93319702 -0.03889465 C3.98214142 -0.04628159 5.03108582 -0.05366852 6.11181641 -0.0612793 C7.18710602 -0.06935104 8.26239563 -0.07742279 9.37026978 -0.08573914 C11.64836003 -0.09958548 13.92647107 -0.11030516 16.20458984 -0.11816406 C19.69229267 -0.13539388 23.17905195 -0.17927802 26.66650391 -0.22338867 C28.87743442 -0.23351383 31.08837301 -0.24203049 33.29931641 -0.2487793 C34.34421234 -0.26628738 35.38910828 -0.28379547 36.46566772 -0.30183411 C43.47545947 -0.28078466 43.47545947 -0.28078466 46.99511719 1.58642578 C49.10476762 5.65503733 48.90900485 9.5329759 48.86962891 14.05200195 C48.87345581 15.01348145 48.87728271 15.97496094 48.88122559 16.96557617 C48.88394493 18.99634855 48.8765822 21.02715595 48.85986328 23.05786133 C48.83845415 26.16607766 48.85966437 29.27198251 48.88525391 32.38012695 C48.88261063 34.35409039 48.87748567 36.32805238 48.86962891 38.30200195 C48.87772583 39.23125488 48.88582275 40.16050781 48.89416504 41.11791992 C48.84039933 44.81796299 48.71574459 47.45344428 46.99072266 50.76098633 C42.62928924 53.08943937 38.2348932 52.74618075 33.36962891 52.70825195 C31.76093933 52.71399231 31.76093933 52.71399231 30.11975098 52.71984863 C27.85358745 52.72256912 25.5873926 52.71519848 23.32128906 52.69848633 C19.85101363 52.67707989 16.38280864 52.6982847 12.91259766 52.72387695 C10.71077017 52.7212337 8.50894397 52.71610878 6.30712891 52.70825195 C5.26850708 52.71634888 4.22988525 52.7244458 3.15979004 52.73278809 C-4.00440331 52.63945229 -4.00440331 52.63945229 -7.28466797 50.33129883 C-10.06087896 45.98780843 -9.83820006 41.76013543 -9.86474609 36.7824707 C-9.87044617 35.95749588 -9.87614624 35.13252106 -9.88201904 34.282547 C-9.89146232 32.53668497 -9.89800036 30.79080518 -9.90185547 29.04492188 C-9.91154695 26.38485277 -9.94257021 23.72556117 -9.97412109 21.06567383 C-9.98065299 19.36711069 -9.98590273 17.66854205 -9.98974609 15.9699707 C-10.0020929 15.17914597 -10.0144397 14.38832123 -10.02716064 13.5735321 C-10.00773691 8.71515538 -9.35079225 5.38875464 -6.66162109 1.17700195 C-4.25134002 -0.02813858 -2.69269901 0.03104017 0 0 Z M7.33837891 17.17700195 C7.33837891 23.11700195 7.33837891 29.05700195 7.33837891 35.17700195 C15.25837891 35.17700195 23.17837891 35.17700195 31.33837891 35.17700195 C31.33837891 29.23700195 31.33837891 23.29700195 31.33837891 17.17700195 C23.41837891 17.17700195 15.49837891 17.17700195 7.33837891 17.17700195 Z " fill="#FD9100" transform="translate(97.66162109375,284.822998046875)"/>
<path d="M0 0 C1.07245972 -0.0038269 2.14491943 -0.00765381 3.24987793 -0.01159668 C5.51604146 -0.01431716 7.78223631 -0.00694653 10.04833984 0.00976562 C13.51861528 0.03117206 16.98682027 0.00996725 20.45703125 -0.015625 C22.65885874 -0.01298175 24.86068494 -0.00785683 27.0625 0 C28.10112183 -0.00809692 29.13974365 -0.01619385 30.20983887 -0.02453613 C37.37403222 0.06879966 37.37403222 0.06879966 40.65429688 2.37695312 C43.43050787 6.72044352 43.20782896 10.94811652 43.234375 15.92578125 C43.24007507 16.75075607 43.24577515 17.5757309 43.25164795 18.42570496 C43.26109123 20.17156698 43.26762926 21.91744677 43.27148438 23.66333008 C43.28117586 26.32339918 43.31219912 28.98269078 43.34375 31.64257812 C43.35028189 33.34114126 43.35553163 35.0397099 43.359375 36.73828125 C43.3717218 37.52910599 43.3840686 38.31993073 43.39678955 39.13471985 C43.37736582 43.99309657 42.72042115 47.31949731 40.03125 51.53125 C37.6245496 52.7346002 36.0583549 52.68363024 33.36962891 52.72412109 C32.40167389 52.74018402 31.43371887 52.75624695 30.43643188 52.77279663 C26.01264094 52.81718022 21.58900041 52.8582997 17.16503906 52.88134766 C14.82932585 52.89792452 12.49366372 52.92523696 10.15820312 52.96337891 C6.79530452 53.01803314 3.43359489 53.04000342 0.0703125 53.0546875 C-0.97458344 53.07735687 -2.01947937 53.10002625 -3.09603882 53.12338257 C-10.17935049 53.1026615 -10.17935049 53.1026615 -13.62548828 50.6081543 C-15.51830976 46.27241654 -15.54205999 42.46397244 -15.5 37.77734375 C-15.5038269 36.83947525 -15.50765381 35.90160675 -15.51159668 34.93531799 C-15.51431263 32.95760013 -15.50697365 30.97984615 -15.49023438 29.00219727 C-15.46879611 25.97526089 -15.49005903 22.95069149 -15.515625 19.92382812 C-15.51298214 17.99999477 -15.50785802 16.07616288 -15.5 14.15234375 C-15.50809692 13.24810165 -15.51619385 12.34385956 -15.52453613 11.41221619 C-15.4701472 7.76956978 -15.32794625 5.2157401 -13.62109375 1.96313477 C-9.26419678 -0.38896397 -4.8709355 -0.03797301 0 0 Z M2.03125 17.53125 C2.03125 23.47125 2.03125 29.41125 2.03125 35.53125 C9.95125 35.53125 17.87125 35.53125 26.03125 35.53125 C26.03125 29.59125 26.03125 23.65125 26.03125 17.53125 C18.11125 17.53125 10.19125 17.53125 2.03125 17.53125 Z " fill="#FD9100" transform="translate(380.96875,284.46875)"/>
<path d="M0 0 C1.45193253 -0.02409439 1.45193253 -0.02409439 2.93319702 -0.04867554 C7.35698797 -0.09305913 11.7806285 -0.13417861 16.20458984 -0.15722656 C18.54030306 -0.17380343 20.87596519 -0.20111587 23.21142578 -0.23925781 C26.57432439 -0.29391204 29.93603402 -0.31588233 33.29931641 -0.33056641 C34.34421234 -0.35323578 35.38910828 -0.37590515 36.46566772 -0.39926147 C43.55546611 -0.37852143 43.55546611 -0.37852143 46.99511719 2.13183594 C48.86410174 6.39089235 48.91215619 10.08553737 48.86962891 14.69287109 C48.87345581 15.60617187 48.87728271 16.51947266 48.88122559 17.46044922 C48.88394144 19.38689276 48.87660315 21.31337337 48.85986328 23.23974609 C48.83844859 26.18329318 48.85967561 29.12439965 48.88525391 32.06787109 C48.88261057 33.94287646 48.87748547 35.81788032 48.86962891 37.69287109 C48.87772583 38.57007813 48.88582275 39.44728516 48.89416504 40.35107422 C48.83645817 44.12396015 48.52661219 46.76624308 46.99072266 50.24731445 C42.7449244 53.36170753 38.5017031 52.88728927 33.36962891 52.82177734 C31.76093933 52.82539528 31.76093933 52.82539528 30.11975098 52.8290863 C27.85355937 52.82810733 25.587344 52.81470192 23.32128906 52.78979492 C19.85089953 52.75549484 16.38305668 52.76913256 12.91259766 52.78857422 C10.71076389 52.78167572 8.5089367 52.7720033 6.30712891 52.75927734 C5.26850708 52.76423721 4.22988525 52.76919708 3.15979004 52.77430725 C-4.00265011 52.65710707 -4.00265011 52.65710707 -7.28466797 50.3449707 C-10.06243199 46.00348314 -9.83820638 41.77481918 -9.86474609 36.79833984 C-9.87044617 35.97336502 -9.87614624 35.1483902 -9.88201904 34.29841614 C-9.89146232 32.55255411 -9.89800036 30.80667432 -9.90185547 29.06079102 C-9.91154695 26.40072192 -9.94257021 23.74143031 -9.97412109 21.08154297 C-9.98065299 19.38297983 -9.98590273 17.68441119 -9.98974609 15.98583984 C-10.0020929 15.19501511 -10.0144397 14.40419037 -10.02716064 13.58940125 C-10.00773691 8.73102452 -9.35079225 5.40462378 -6.66162109 1.19287109 C-4.25492069 -0.01047911 -2.68872599 0.04049086 0 0 Z M7.33837891 17.19287109 C7.33837891 23.13287109 7.33837891 29.07287109 7.33837891 35.19287109 C15.25837891 35.19287109 23.17837891 35.19287109 31.33837891 35.19287109 C31.33837891 29.25287109 31.33837891 23.31287109 31.33837891 17.19287109 C23.41837891 17.19287109 15.49837891 17.19287109 7.33837891 17.19287109 Z " fill="#FD9100" transform="translate(282.66162109375,284.80712890625)"/>
<path d="M0 0 C1.07245972 -0.00241196 2.14491943 -0.00482391 3.24987793 -0.00730896 C5.51606954 -0.00632999 7.7822849 0.00707542 10.04833984 0.03198242 C13.51872937 0.0662825 16.98657223 0.05264478 20.45703125 0.03320312 C22.65886502 0.04010163 24.8606922 0.04977404 27.0625 0.0625 C28.10112183 0.05754013 29.13974365 0.05258026 30.20983887 0.04747009 C37.37227902 0.16467027 37.37227902 0.16467027 40.65429688 2.47680664 C43.4320609 6.8182942 43.20783529 11.04695817 43.234375 16.0234375 C43.24007507 16.84841232 43.24577515 17.67338715 43.25164795 18.52336121 C43.26109123 20.26922323 43.26762926 22.01510302 43.27148438 23.76098633 C43.28117586 26.42105543 43.31219912 29.08034703 43.34375 31.74023438 C43.35028189 33.43879751 43.35553163 35.13736615 43.359375 36.8359375 C43.3717218 37.62676224 43.3840686 38.41758698 43.39678955 39.2323761 C43.37736582 44.09075282 42.72042115 47.41715356 40.03125 51.62890625 C37.6245496 52.83225645 36.0583549 52.78128649 33.36962891 52.82177734 C32.40167389 52.83784027 31.43371887 52.8539032 30.43643188 52.87045288 C26.01264094 52.91483647 21.58900041 52.95595595 17.16503906 52.97900391 C14.82932585 52.99558077 12.49366372 53.02289321 10.15820312 53.06103516 C6.79530452 53.11568939 3.43359489 53.13765967 0.0703125 53.15234375 C-0.97458344 53.17501312 -2.01947937 53.1976825 -3.09603882 53.22103882 C-10.18583721 53.20029877 -10.18583721 53.20029877 -13.62548828 50.68994141 C-15.49447284 46.430885 -15.54252728 42.73623997 -15.5 38.12890625 C-15.5038269 37.21560547 -15.50765381 36.30230469 -15.51159668 35.36132812 C-15.51431253 33.43488459 -15.50697424 31.50840397 -15.49023438 29.58203125 C-15.46881968 26.63848417 -15.49004671 23.6973777 -15.515625 20.75390625 C-15.51298167 18.87890088 -15.50785657 17.00389702 -15.5 15.12890625 C-15.50809692 14.25169922 -15.51619385 13.37449219 -15.52453613 12.47070312 C-15.46682927 8.69781719 -15.15698329 6.05553427 -13.62109375 2.57446289 C-9.37529549 -0.53993018 -5.13207419 -0.06551192 0 0 Z M2.03125 17.62890625 C2.03125 23.56890625 2.03125 29.50890625 2.03125 35.62890625 C9.95125 35.62890625 17.87125 35.62890625 26.03125 35.62890625 C26.03125 29.68890625 26.03125 23.74890625 26.03125 17.62890625 C18.11125 17.62890625 10.19125 17.62890625 2.03125 17.62890625 Z " fill="#FD9100" transform="translate(195.96875,284.37109375)"/>
<path d="M0 0 C3.33892786 1.92915832 4.69563407 3.19432547 6.0625 6.8125 C5.91646494 14.26028798 0.21028407 19.15960704 -4.5703125 24.32421875 C-7.00056671 27.00062411 -9.29003442 29.75140503 -11.5625 32.5625 C-23.79309006 47.64689441 -23.79309006 47.64689441 -29.125 48.5 C-34.75861328 47.77308216 -37.09448762 44.93827674 -41 41 C-42.04584826 39.97681404 -43.09279864 38.95475387 -44.140625 37.93359375 C-53.8406909 28.40723038 -53.8406909 28.40723038 -54.375 23.6875 C-54 20 -54 20 -51.875 17.0625 C-49 15 -49 15 -46.0625 14.4375 C-39.12670765 15.71142104 -34.66636078 21.0851348 -30 26 C-23.72509734 19.27940332 -17.65607313 12.51174916 -11.97265625 5.27734375 C-8.274484 1.00796866 -5.77933211 -0.82561887 0 0 Z " fill="#FD9100" transform="translate(419,199)"/>
</svg>
